<svg width="1501" height="541" viewBox="0 0 1501 541" fill="none" xmlns="http://www.w3.org/2000/svg">
<path d="M151.574 478.346H104.33V268.711C104.33 262.697 111.263 257.488 121.029 256.143L151.574 251.969V478.346Z" fill="#4A4A4A"/>
<path d="M218.502 456.693H171.258V212.422C171.258 205.414 178.19 199.345 187.957 197.777L218.502 192.913V456.693Z" fill="#4A4A4A"/>
<path d="M285.434 423.228H238.189V155.258C238.189 147.571 245.122 140.913 254.889 139.194L285.434 133.858V423.214V423.228Z" fill="#4A4A4A"/>
<path d="M103.878 540.217C103.878 501.359 103.642 464.351 104.075 427.343C104.154 420.04 101.634 416.221 95.5122 412.776C69.7839 398.347 44.4493 383.209 18.6815 368.859C5.86658 361.733 -0.0586181 351.733 0.000436977 336.988C0.276027 270.414 0.295713 203.819 0.000436977 137.225C-0.0586181 122.146 5.94532 112.146 19.0949 104.646C75.7681 72.3822 132.323 39.8625 188.524 6.71289C203.563 -2.14538 216.418 -2.30286 231.536 6.63415C287.126 39.4688 343.091 71.7129 399.272 103.544C413.78 111.752 420.119 122.284 419.961 139.114C419.39 204.705 419.607 270.315 420 335.925C420.099 351.811 413.642 361.929 399.823 369.843C304.233 424.528 208.937 479.764 113.544 534.823C111.024 536.28 108.465 537.658 103.898 540.217H103.878ZM152.461 455.492C156.674 453.465 158.76 452.618 160.689 451.516C225.119 414.331 289.489 377.008 354.016 339.961C366.142 332.992 371.457 322.992 371.418 309.311C371.3 261.103 371.26 212.874 371.418 164.666C371.477 150.512 365.807 140.473 353.367 133.386C310.65 109.055 268.15 84.331 225.591 59.7247C214.961 53.5633 204.685 53.8192 194.016 60.02C151.811 84.5672 109.587 109.095 67.1067 133.17C54.6855 140.217 48.6225 149.823 48.6815 164.114C48.8784 212.658 48.8784 261.201 48.6815 309.744C48.6225 323.642 54.3311 333.347 66.4374 340.138C88.7406 352.638 110.493 366.142 132.993 378.248C147.205 385.886 153.17 396.811 152.579 412.54C152.067 426.221 152.481 439.922 152.481 455.492H152.461Z" fill="#FF9315"/>
<path d="M550.002 300.608L514.202 160.608H542.702L565.502 250.108L588.302 160.608H613.602L636.402 250.108L659.202 160.608H687.702L652.102 300.608H620.902L601.002 222.808L581.202 300.608H550.002ZM763.058 200.608H790.658V300.608H762.958L761.658 290.208C759.058 294.075 755.725 297.208 751.658 299.608C747.592 302.008 742.825 303.208 737.358 303.208C729.892 303.208 722.925 301.808 716.458 299.008C709.992 296.208 704.292 292.342 699.358 287.408C694.425 282.475 690.558 276.775 687.758 270.308C685.025 263.775 683.658 256.775 683.658 249.308C683.658 242.175 684.958 235.508 687.558 229.308C690.158 223.108 693.825 217.642 698.558 212.908C703.292 208.175 708.725 204.475 714.858 201.808C721.058 199.142 727.725 197.808 734.858 197.808C740.992 197.808 746.492 199.108 751.358 201.708C756.292 204.308 760.592 207.608 764.258 211.608L763.058 200.608ZM736.658 276.708C741.192 276.708 745.292 275.542 748.958 273.208C752.625 270.875 755.525 267.742 757.658 263.808C759.792 259.808 760.858 255.408 760.858 250.608C760.858 245.742 759.792 241.342 757.658 237.408C755.525 233.475 752.625 230.342 748.958 228.008C745.292 225.675 741.192 224.508 736.658 224.508C732.058 224.508 727.892 225.675 724.158 228.008C720.425 230.342 717.458 233.508 715.258 237.508C713.058 241.442 711.958 245.808 711.958 250.608C711.958 255.408 713.058 259.808 715.258 263.808C717.525 267.742 720.525 270.875 724.258 273.208C727.992 275.542 732.125 276.708 736.658 276.708ZM810.852 300.608L810.752 200.608H838.352L838.452 208.008C841.785 204.808 845.685 202.308 850.152 200.508C854.685 198.708 859.452 197.808 864.452 197.808C868.119 197.808 871.785 198.342 875.452 199.408L864.552 227.308C862.152 226.308 859.719 225.808 857.252 225.808C853.785 225.808 850.619 226.642 847.752 228.308C844.885 229.975 842.619 232.242 840.952 235.108C839.285 237.908 838.452 241.075 838.452 244.608V300.608H810.852ZM925.65 303.208C916.45 303.208 908.05 300.842 900.45 296.108C892.917 291.375 886.884 285.008 882.35 277.008C877.884 269.008 875.65 260.175 875.65 250.508C875.65 243.242 876.95 236.442 879.55 230.108C882.15 223.708 885.717 218.108 890.25 213.308C894.85 208.442 900.184 204.642 906.25 201.908C912.317 199.175 918.784 197.808 925.65 197.808C933.584 197.808 940.817 199.508 947.35 202.908C953.95 206.308 959.517 210.942 964.05 216.808C968.65 222.675 971.917 229.308 973.85 236.708C975.85 244.108 976.184 251.808 974.85 259.808H905.45C906.317 262.742 907.65 265.408 909.45 267.808C911.317 270.142 913.584 272.008 916.25 273.408C918.984 274.808 922.117 275.542 925.65 275.608C929.117 275.675 932.317 274.875 935.25 273.208C938.184 271.542 940.684 269.308 942.75 266.508L970.95 273.008C966.884 281.875 960.817 289.142 952.75 294.808C944.684 300.408 935.65 303.208 925.65 303.208ZM904.45 239.408H946.95C946.084 236.075 944.617 233.075 942.55 230.408C940.484 227.742 937.984 225.642 935.05 224.108C932.184 222.575 929.05 221.808 925.65 221.808C922.317 221.808 919.184 222.575 916.25 224.108C913.384 225.642 910.917 227.742 908.85 230.408C906.85 233.008 905.384 236.008 904.45 239.408ZM1081.97 237.008V300.608H1054.37V244.608C1054.37 241.075 1053.51 237.908 1051.77 235.108C1050.11 232.242 1047.84 229.975 1044.97 228.308C1042.17 226.642 1039.04 225.808 1035.57 225.808C1032.11 225.808 1028.94 226.642 1026.07 228.308C1023.21 229.975 1020.94 232.242 1019.27 235.108C1017.61 237.908 1016.77 241.075 1016.77 244.608V300.608H989.172L989.072 150.608H1016.67L1016.77 208.008C1020.11 204.808 1024.01 202.308 1028.47 200.508C1033.01 198.708 1037.77 197.808 1042.77 197.808C1050.04 197.808 1056.61 199.575 1062.47 203.108C1068.41 206.642 1073.14 211.375 1076.67 217.308C1080.21 223.175 1081.97 229.742 1081.97 237.008ZM1144.01 303.208C1134.81 303.208 1126.41 300.842 1118.81 296.108C1111.28 291.375 1105.24 285.042 1100.71 277.108C1096.24 269.108 1094.01 260.275 1094.01 250.608C1094.01 243.275 1095.31 236.442 1097.91 230.108C1100.51 223.708 1104.08 218.108 1108.61 213.308C1113.21 208.442 1118.54 204.642 1124.61 201.908C1130.68 199.175 1137.14 197.808 1144.01 197.808C1153.21 197.808 1161.58 200.175 1169.11 204.908C1176.71 209.642 1182.74 216.008 1187.21 224.008C1191.74 232.008 1194.01 240.875 1194.01 250.608C1194.01 257.875 1192.71 264.675 1190.11 271.008C1187.51 277.342 1183.91 282.942 1179.31 287.808C1174.78 292.608 1169.48 296.375 1163.41 299.108C1157.41 301.842 1150.94 303.208 1144.01 303.208ZM1144.01 275.608C1148.28 275.608 1152.11 274.475 1155.51 272.208C1158.91 269.875 1161.58 266.808 1163.51 263.008C1165.44 259.208 1166.41 255.075 1166.41 250.608C1166.41 246.008 1165.38 241.808 1163.31 238.008C1161.31 234.142 1158.61 231.075 1155.21 228.808C1151.81 226.542 1148.08 225.408 1144.01 225.408C1139.81 225.408 1136.01 226.575 1132.61 228.908C1129.21 231.242 1126.51 234.308 1124.51 238.108C1122.58 241.908 1121.61 246.075 1121.61 250.608C1121.61 255.342 1122.61 259.608 1124.61 263.408C1126.68 267.142 1129.41 270.108 1132.81 272.308C1136.21 274.508 1139.94 275.608 1144.01 275.608ZM1202.65 264.008V200.608H1230.25V256.408C1230.25 259.942 1231.08 263.142 1232.75 266.008C1234.48 268.808 1236.78 271.042 1239.65 272.708C1242.52 274.375 1245.65 275.208 1249.05 275.208C1252.52 275.208 1255.68 274.375 1258.55 272.708C1261.42 271.042 1263.68 268.808 1265.35 266.008C1267.02 263.142 1267.85 259.942 1267.85 256.408V200.608H1295.45L1295.55 300.608H1267.95L1267.85 293.008C1264.52 296.208 1260.58 298.708 1256.05 300.508C1251.58 302.308 1246.85 303.208 1241.85 303.208C1234.65 303.208 1228.08 301.442 1222.15 297.908C1216.22 294.375 1211.48 289.675 1207.95 283.808C1204.42 277.875 1202.65 271.275 1202.65 264.008ZM1344.73 302.408C1339.6 302.008 1334.67 300.942 1329.93 299.208C1325.2 297.408 1320.97 295.008 1317.23 292.008C1313.57 288.942 1310.7 285.275 1308.63 281.008L1331.83 271.008C1332.57 272.075 1333.67 273.242 1335.13 274.508C1336.6 275.708 1338.37 276.775 1340.43 277.708C1342.57 278.642 1345.03 279.108 1347.83 279.108C1349.9 279.108 1351.9 278.875 1353.83 278.408C1355.77 277.875 1357.33 277.042 1358.53 275.908C1359.73 274.708 1360.33 273.142 1360.33 271.208C1360.33 269.075 1359.57 267.442 1358.03 266.308C1356.5 265.175 1354.63 264.342 1352.43 263.808C1350.3 263.208 1348.23 262.708 1346.23 262.308C1340.1 261.242 1334.3 259.342 1328.83 256.608C1323.43 253.808 1319.03 250.208 1315.63 245.808C1312.23 241.408 1310.53 236.142 1310.53 230.008C1310.53 223.275 1312.3 217.475 1315.83 212.608C1319.37 207.675 1323.97 203.875 1329.63 201.208C1335.3 198.542 1341.43 197.208 1348.03 197.208C1355.83 197.208 1363.07 198.842 1369.73 202.108C1376.4 205.375 1381.77 209.975 1385.83 215.908L1364.03 228.808C1363.17 227.542 1362.03 226.342 1360.63 225.208C1359.3 224.008 1357.73 223.008 1355.93 222.208C1354.2 221.342 1352.33 220.842 1350.33 220.708C1347.73 220.508 1345.37 220.675 1343.23 221.208C1341.1 221.675 1339.4 222.575 1338.13 223.908C1336.93 225.242 1336.33 227.042 1336.33 229.308C1336.33 231.508 1337.3 233.142 1339.23 234.208C1341.17 235.208 1343.4 235.975 1345.93 236.508C1348.47 236.975 1350.7 237.542 1352.63 238.208C1358.43 240.075 1363.87 242.475 1368.93 245.408C1374.07 248.275 1378.2 251.808 1381.33 256.008C1384.47 260.208 1385.93 265.142 1385.73 270.808C1385.73 277.408 1383.77 283.208 1379.83 288.208C1375.9 293.142 1370.8 296.908 1364.53 299.508C1358.33 302.042 1351.73 303.008 1344.73 302.408ZM1444.79 303.208C1435.59 303.208 1427.19 300.842 1419.59 296.108C1412.06 291.375 1406.02 285.008 1401.49 277.008C1397.02 269.008 1394.79 260.175 1394.79 250.508C1394.79 243.242 1396.09 236.442 1398.69 230.108C1401.29 223.708 1404.86 218.108 1409.39 213.308C1413.99 208.442 1419.32 204.642 1425.39 201.908C1431.46 199.175 1437.92 197.808 1444.79 197.808C1452.72 197.808 1459.96 199.508 1466.49 202.908C1473.09 206.308 1478.66 210.942 1483.19 216.808C1487.79 222.675 1491.06 229.308 1492.99 236.708C1494.99 244.108 1495.32 251.808 1493.99 259.808H1424.59C1425.46 262.742 1426.79 265.408 1428.59 267.808C1430.46 270.142 1432.72 272.008 1435.39 273.408C1438.12 274.808 1441.26 275.542 1444.79 275.608C1448.26 275.675 1451.46 274.875 1454.39 273.208C1457.32 271.542 1459.82 269.308 1461.89 266.508L1490.09 273.008C1486.02 281.875 1479.96 289.142 1471.89 294.808C1463.82 300.408 1454.79 303.208 1444.79 303.208ZM1423.59 239.408H1466.09C1465.22 236.075 1463.76 233.075 1461.69 230.408C1459.62 227.742 1457.12 225.642 1454.19 224.108C1451.32 222.575 1448.19 221.808 1444.79 221.808C1441.46 221.808 1438.32 222.575 1435.39 224.108C1432.52 225.642 1430.06 227.742 1427.99 230.408C1425.99 233.008 1424.52 236.008 1423.59 239.408Z" fill="#FF9315"/>
<path d="M507.668 392.912H513.344C513.344 397.728 516.956 400.738 522.804 400.738C529.254 400.738 533.038 397.986 533.038 393.514C533.038 390.074 531.318 388.096 526.416 386.892L519.278 385.086C512.054 383.28 508.528 379.496 508.528 373.82C508.528 366.51 514.634 361.866 523.578 361.866C532.35 361.866 538.026 366.682 538.284 374.422H532.522C532.35 369.606 528.996 366.768 523.406 366.768C517.558 366.768 514.29 369.262 514.29 373.734C514.29 376.916 516.526 379.152 521.084 380.27L528.222 382.076C535.446 383.882 538.714 387.236 538.714 393.256C538.714 400.738 532.35 405.64 522.89 405.64C513.516 405.64 507.668 400.652 507.668 392.912ZM543.429 422.754V417.852H547.987C551.599 417.852 555.211 417.594 557.275 412.004L559.081 407.102L542.225 362.984H548.503L561.919 399.276L575.077 362.984H581.183L562.091 414.154C559.683 420.69 555.641 423.356 549.707 423.356C547.213 423.356 545.321 423.184 543.429 422.754ZM584.346 392.912H590.022C590.022 397.728 593.634 400.738 599.482 400.738C605.932 400.738 609.716 397.986 609.716 393.514C609.716 390.074 607.996 388.096 603.094 386.892L595.956 385.086C588.732 383.28 585.206 379.496 585.206 373.82C585.206 366.51 591.312 361.866 600.256 361.866C609.028 361.866 614.704 366.682 614.962 374.422H609.2C609.028 369.606 605.674 366.768 600.084 366.768C594.236 366.768 590.968 369.262 590.968 373.734C590.968 376.916 593.204 379.152 597.762 380.27L604.9 382.076C612.124 383.882 615.392 387.236 615.392 393.256C615.392 400.738 609.028 405.64 599.568 405.64C590.194 405.64 584.346 400.652 584.346 392.912ZM634.707 404.608H628.859V367.972H620.517V362.984H628.859V349.826H634.707V362.984H643.049V367.972H634.707V404.608ZM667.814 405.64C655.602 405.64 647.432 396.868 647.432 383.796C647.432 370.81 655.516 361.866 667.384 361.866C678.65 361.866 686.304 369.864 686.304 381.646V384.57H653.194C653.624 394.718 658.956 400.566 667.9 400.566C674.694 400.566 679.08 397.642 680.628 392.138H686.304C684.068 400.91 677.618 405.64 667.814 405.64ZM667.384 366.94C659.558 366.94 654.398 372.1 653.366 380.27H680.37C680.37 372.272 675.21 366.94 667.384 366.94ZM701.726 404.608H695.792V362.984H700.952L701.64 368.918C703.704 364.532 708.348 361.866 714.196 361.866C720.732 361.866 725.634 365.306 727.612 370.724C729.504 365.306 734.578 361.866 741.286 361.866C750.316 361.866 756.25 367.714 756.25 377.346V404.608H750.488V378.55C750.488 371.412 746.532 367.198 740.168 367.198C733.202 367.198 729.074 372.444 729.074 378.894V404.608H723.226V378.464C723.226 371.412 719.184 367.284 712.906 367.284C705.94 367.284 701.726 372.444 701.726 378.808V404.608ZM764.156 392.912H769.832C769.832 397.728 773.444 400.738 779.292 400.738C785.742 400.738 789.526 397.986 789.526 393.514C789.526 390.074 787.806 388.096 782.904 386.892L775.766 385.086C768.542 383.28 765.016 379.496 765.016 373.82C765.016 366.51 771.122 361.866 780.066 361.866C788.838 361.866 794.514 366.682 794.772 374.422H789.01C788.838 369.606 785.484 366.768 779.894 366.768C774.046 366.768 770.778 369.262 770.778 373.734C770.778 376.916 773.014 379.152 777.572 380.27L784.71 382.076C791.934 383.882 795.202 387.236 795.202 393.256C795.202 400.738 788.838 405.64 779.378 405.64C770.004 405.64 764.156 400.652 764.156 392.912ZM825.899 383.882C825.899 370.81 833.897 361.866 846.023 361.866C855.655 361.866 862.707 367.456 864.341 376.056H858.407C856.859 370.294 851.871 367.112 846.109 367.112C837.681 367.112 831.747 373.562 831.747 383.796C831.747 393.686 837.251 400.308 845.679 400.308C851.871 400.308 856.859 396.868 858.493 391.536H864.513C862.535 400.05 855.139 405.64 845.679 405.64C833.897 405.64 825.899 396.954 825.899 383.882ZM870.579 383.796C870.579 371.068 879.523 361.866 891.735 361.866C903.947 361.866 912.891 371.068 912.891 383.796C912.891 396.438 903.947 405.64 891.735 405.64C879.523 405.64 870.579 396.438 870.579 383.796ZM876.599 383.71C876.599 393.514 882.791 400.308 891.735 400.308C900.593 400.308 906.871 393.514 906.871 383.71C906.871 374.078 900.593 367.198 891.735 367.198C882.791 367.198 876.599 374.078 876.599 383.71ZM928.315 404.608H922.381V362.984H927.541L928.401 370.208C931.153 364.876 936.657 361.866 942.677 361.866C954.115 361.866 958.845 368.66 958.845 379.152V404.608H952.911V380.442C952.911 370.724 948.525 367.284 941.645 367.284C933.131 367.284 928.315 373.476 928.315 382.85V404.608ZM966.643 392.912H972.319C972.319 397.728 975.931 400.738 981.779 400.738C988.229 400.738 992.013 397.986 992.013 393.514C992.013 390.074 990.293 388.096 985.391 386.892L978.253 385.086C971.029 383.28 967.503 379.496 967.503 373.82C967.503 366.51 973.609 361.866 982.553 361.866C991.325 361.866 997.001 366.682 997.259 374.422H991.497C991.325 369.606 987.971 366.768 982.381 366.768C976.533 366.768 973.265 369.262 973.265 373.734C973.265 376.916 975.501 379.152 980.059 380.27L987.197 382.076C994.421 383.882 997.689 387.236 997.689 393.256C997.689 400.738 991.325 405.64 981.865 405.64C972.491 405.64 966.643 400.652 966.643 392.912ZM1036.7 362.984H1042.63V404.608H1037.47L1036.7 397.556C1034.38 402.372 1028.61 405.64 1022.08 405.64C1012.27 405.64 1006.94 398.932 1006.94 388.784V362.898H1012.96V386.892C1012.96 396.782 1017.35 400.308 1023.97 400.308C1031.97 400.308 1036.7 394.976 1036.7 385.086V362.984ZM1061.18 404.608H1055.25V341.914H1061.18V404.608ZM1083.35 404.608H1077.5V367.972H1069.16V362.984H1077.5V349.826H1083.35V362.984H1091.69V367.972H1083.35V404.608ZM1102.34 351.546C1099.94 351.546 1097.96 349.568 1097.96 347.16C1097.96 344.752 1099.94 342.688 1102.34 342.688C1104.75 342.688 1106.82 344.752 1106.82 347.16C1106.82 349.568 1104.75 351.546 1102.34 351.546ZM1099.42 404.608V362.984H1105.35V404.608H1099.42ZM1123.66 404.608H1117.73V362.984H1122.89L1123.75 370.208C1126.5 364.876 1132.01 361.866 1138.03 361.866C1149.46 361.866 1154.19 368.66 1154.19 379.152V404.608H1148.26V380.442C1148.26 370.724 1143.87 367.284 1136.99 367.284C1128.48 367.284 1123.66 373.476 1123.66 382.85V404.608ZM1163.18 382.592C1163.18 371.24 1170.49 361.866 1182.7 361.866C1189.93 361.866 1195.43 365.22 1198.1 371.326L1198.7 362.984H1203.86V403.318C1203.86 415.702 1195.95 423.786 1183.74 423.786C1173.07 423.786 1165.59 417.766 1163.96 407.704H1169.89C1171.18 414.412 1176.34 418.368 1183.82 418.368C1192.34 418.368 1198.01 412.606 1198.01 403.92V394.03C1195.17 399.878 1189.41 403.318 1182.27 403.318C1170.41 403.318 1163.18 393.944 1163.18 382.592ZM1169.12 382.506C1169.12 391.02 1174.36 397.986 1183.13 397.986C1192.16 397.986 1197.5 391.45 1197.5 382.506C1197.5 373.648 1192.34 367.112 1183.22 367.112C1174.28 367.112 1169.12 374.078 1169.12 382.506Z" fill="#4A4A4A"/>
</svg>
